<?xml version="1.0" standalone="no"?>
<!DOCTYPE svg PUBLIC "-//W3C//DTD SVG 20010904//EN"
 "http://www.w3.org/TR/2001/REC-SVG-20010904/DTD/svg10.dtd">
<svg version="1.0" xmlns="http://www.w3.org/2000/svg"
 width="500.000000pt" height="500.000000pt" viewBox="0 0 500.000000 500.000000"
 preserveAspectRatio="xMidYMid meet">

<g transform="translate(0.000000,500.000000) scale(0.100000,-0.100000)"
fill="#000000" stroke="none">
<path d="M2280 4181 c-382 -82 -675 -365 -787 -761 -14 -51 -18 -100 -18 -235
0 -149 3 -180 24 -250 18 -63 61 -166 88 -216 2 -3 -17 -29 -42 -57 -25 -27
-45 -53 -45 -56 0 -3 29 -6 64 -6 l64 0 45 51 45 51 -27 47 c-104 176 -144
416 -102 613 47 226 163 408 352 553 305 236 725 247 1050 27 178 -119 313
-297 370 -486 29 -94 41 -101 -186 115 -82 78 -173 139 -208 139 -7 0 -24 24
-37 53 -31 70 -138 175 -212 210 -82 39 -148 50 -265 45 -96 -4 -108 -7 -187
-46 -96 -48 -180 -129 -218 -212 -13 -28 -28 -50 -34 -50 -33 0 -138 -67 -183
-116 -63 -69 -98 -140 -118 -244 -28 -138 2 -251 90 -347 47 -52 103 -83 147
-83 24 0 30 4 30 23 0 12 9 37 21 56 l20 34 32 -30 c18 -17 43 -36 56 -43 34
-17 122 -15 159 4 44 23 48 21 70 -26 19 -40 19 -49 8 -128 -11 -82 -47 -167
-78 -186 -6 -4 -4 3 5 17 23 33 22 70 -3 76 -23 6 -27 33 -5 33 11 0 15 12 15
46 0 43 -2 46 -22 41 -13 -3 -39 -9 -59 -12 -30 -6 -36 -10 -32 -26 5 -18 -2
-19 -126 -19 l-131 0 0 30 c0 17 -5 30 -11 30 -8 0 -10 -19 -6 -60 l5 -60 -29
0 c-26 0 -29 -3 -29 -35 0 -31 3 -35 25 -35 19 0 25 -5 25 -23 0 -19 -9 -25
-47 -37 l-48 -13 35 -7 c32 -7 31 -7 -17 -9 -39 -1 -53 -5 -53 -15 0 -8 6 -17
13 -19 6 -3 -3 -4 -20 -3 -26 3 -40 -4 -68 -31 -20 -20 -34 -37 -32 -40 3 -2
40 5 84 16 355 91 623 16 727 -203 l24 -50 22 47 c29 61 100 140 154 172 94
55 151 68 296 69 114 0 152 -4 243 -27 123 -31 117 -30 117 -19 0 50 -189 94
-390 91 -66 -1 -124 1 -127 5 -4 3 7 6 22 6 39 0 22 14 -42 34 -91 30 -142
115 -150 250 -4 69 -1 86 16 113 l20 31 47 -24 c26 -13 53 -24 61 -24 18 0 17
-46 -2 -54 -8 -3 -15 -16 -15 -29 0 -14 7 -30 15 -37 9 -8 15 -30 15 -56 0
-24 5 -44 10 -44 6 0 10 20 10 44 0 26 6 48 15 56 8 7 15 23 15 35 0 13 -7 25
-15 29 -21 8 -19 55 3 62 54 18 76 30 102 55 l28 29 20 -33 c11 -17 24 -45 27
-60 6 -23 12 -27 34 -24 14 2 20 2 14 0 -7 -3 -13 -14 -13 -25 0 -12 -7 -30
-16 -39 -15 -17 -15 -20 0 -43 9 -14 16 -41 16 -61 0 -19 4 -35 9 -35 9 0 27
57 23 73 -2 5 3 5 9 2 6 -4 9 -15 6 -25 -4 -14 7 -19 67 -29 39 -7 79 -13 89
-14 9 -1 17 -6 17 -12 0 -6 19 -32 43 -58 l42 -48 68 3 67 3 -46 53 -46 53 30
67 c102 224 117 481 42 714 -91 286 -333 537 -619 644 -170 64 -388 81 -561
45z m336 -288 c63 -21 109 -51 158 -101 l39 -41 -7 -79 -7 -80 47 -16 c93 -31
184 -102 167 -129 -5 -9 -8 -22 -12 -66 -1 -8 -9 -4 -22 13 -26 33 -34 33 -37
-1 -1 -15 -7 -32 -13 -38 -7 -7 -8 -5 -4 8 9 21 -8 22 -29 2 -8 -8 -22 -15
-30 -15 -9 0 -16 -7 -16 -15 0 -11 -11 -15 -40 -15 -22 0 -41 -4 -41 -10 -1
-5 -2 -14 -3 -19 -5 -41 -40 1 -51 62 -9 46 -19 53 -47 33 -29 -21 -38 -20
-38 2 0 59 -83 232 -110 232 -6 0 -9 -3 -8 -7 5 -18 -14 -216 -22 -239 -12
-31 -45 -31 -64 -1 -19 29 -26 68 -28 150 -1 37 -3 67 -5 67 -12 0 -53 -114
-58 -163 l-7 -58 -24 16 c-19 12 -25 13 -29 3 -41 -118 -46 -127 -80 -138 -69
-23 -147 29 -161 108 -9 50 -14 57 -29 35 -24 -35 -37 -95 -37 -170 1 -73 0
-74 -18 -58 -27 24 -60 96 -61 131 l0 29 -11 -25 c-17 -43 -4 -152 25 -204 29
-52 23 -59 -16 -18 -71 74 -91 211 -47 327 40 104 164 205 251 205 13 0 22 12
29 39 15 56 77 144 132 186 26 20 73 45 105 55 74 24 193 26 259 3z m-140
-820 c-1 -43 0 -150 4 -238 l6 -160 -29 -37 c-16 -21 -36 -38 -45 -38 -11 0
-7 9 16 33 46 48 39 64 -10 24 -65 -52 -67 -51 -42 11 26 64 44 162 44 237 0
48 -2 52 -67 117 -69 70 -74 86 -13 44 19 -13 49 -26 67 -30 35 -8 36 -6 48
72 11 69 23 48 21 -35z m621 -260 c-3 -10 -5 -4 -5 12 0 17 2 24 5 18 2 -7 2
-21 0 -30z m-867 -78 c0 -13 -24 -15 -155 -15 -131 0 -155 2 -155 15 0 13 24
15 155 15 131 0 155 -2 155 -15z m-5 -46 c-59 -12 -365 -11 -365 1 0 6 73 10
203 9 135 -1 189 -4 162 -10z m-298 -81 c-3 -7 -5 -2 -5 12 0 14 2 19 5 13 2
-7 2 -19 0 -25z m263 22 c0 -5 -7 -7 -15 -4 -8 4 -15 2 -15 -3 0 -15 -182 -11
-187 5 -4 9 22 12 106 12 65 0 111 -4 111 -10z m-272 -80 c-36 -11 -113 -21
-106 -14 3 2 18 7 34 10 16 3 31 7 33 10 2 2 18 4 35 3 l31 -1 -27 -8z m298
-5 c-20 -11 -38 -11 -98 0 l-73 13 98 0 c86 0 95 -2 73 -13z"/>
<path d="M2745 3301 c-3 -5 -2 -12 3 -15 5 -3 9 1 9 9 0 17 -3 19 -12 6z"/>
<path d="M2440 2793 c-3 -23 -2 -39 3 -34 5 5 7 24 5 42 -3 33 -4 33 -8 -8z"/>
<path d="M1309 2373 c-328 -386 -289 -325 -289 -445 0 -67 5 -108 15 -127 16
-33 69 -61 113 -61 17 0 140 27 274 61 399 100 455 110 629 116 98 4 163 2
175 -5 13 -7 18 -22 19 -56 0 -38 6 -51 35 -81 48 -50 117 -68 234 -63 143 7
216 56 216 144 0 58 14 64 147 64 151 0 258 -18 609 -105 169 -41 320 -75 336
-75 38 0 88 22 113 50 18 19 20 35 19 132 -1 98 -4 113 -25 141 -25 34 -257
311 -347 415 l-54 62 -79 0 c-44 0 -79 -3 -79 -6 0 -9 78 -118 213 -296 l119
-158 -22 -30 c-12 -16 -30 -30 -41 -30 -11 0 -92 18 -180 40 -395 99 -582 104
-748 20 -62 -31 -161 -121 -161 -145 0 -11 -14 -15 -58 -15 -56 0 -57 0 -92
47 -78 106 -204 162 -380 170 -126 6 -225 -9 -498 -74 l-195 -47 -24 28 c-13
16 -22 34 -20 40 3 6 77 108 166 226 88 118 161 218 161 223 0 4 -36 7 -79 7
l-79 0 -143 -167z m826 -278 c90 -23 155 -59 205 -112 30 -32 33 -38 10 -17
-73 66 -86 69 -295 69 l-190 -1 -300 -71 c-327 -78 -413 -96 -426 -87 -5 3 -9
27 -9 55 l0 49 38 2 c20 1 69 2 107 3 45 1 137 19 255 48 102 26 221 53 265
61 109 19 266 20 340 1z m1031 0 c49 -9 183 -38 298 -66 157 -38 219 -49 249
-45 22 4 60 4 84 0 l43 -6 0 -54 c0 -39 -4 -54 -14 -54 -23 0 -192 36 -366 79
-336 82 -348 84 -512 89 -179 5 -228 -3 -298 -50 l-45 -30 30 31 c36 38 135
89 208 107 72 17 218 17 323 -1z"/>
<path d="M1998 2433 c12 -2 30 -2 40 0 9 3 -1 5 -23 4 -22 0 -30 -2 -17 -4z"/>
<path d="M2943 2433 c15 -2 37 -2 50 0 12 2 0 4 -28 4 -27 0 -38 -2 -22 -4z"/>
<path d="M2679 2359 l-24 -20 28 17 c15 9 27 18 27 20 0 8 -8 4 -31 -17z"/>
<path d="M1455 1471 c-60 -28 -87 -62 -92 -118 -7 -87 26 -119 162 -158 50
-14 99 -34 109 -45 18 -17 18 -20 3 -43 -28 -43 -136 -44 -218 -2 -15 8 -30
15 -32 15 -4 0 -37 -75 -37 -84 0 -3 26 -15 58 -27 84 -33 201 -33 266 1 102
52 116 167 29 226 -18 12 -70 32 -115 44 -88 23 -118 42 -118 71 0 47 109 65
190 33 47 -19 43 -20 63 26 15 34 15 35 16 8 l1 -28 80 0 80 0 0 -200 0 -200
55 0 55 0 0 200 0 200 80 0 80 0 0 50 0 50 -215 0 c-205 0 -215 -1 -215 -19 0
-19 -1 -19 -50 0 -67 25 -180 25 -235 0z"/>
<path d="M2192 1308 c3 -157 6 -189 22 -222 39 -78 153 -120 261 -96 62 14
109 49 137 103 20 39 22 56 23 217 l0 175 -55 0 -55 0 -5 -178 -5 -179 -28
-24 c-34 -29 -100 -33 -136 -8 -42 30 -51 71 -51 239 l0 155 -56 0 -55 0 3
-182z"/>
<path d="M2710 1241 l0 -253 153 4 c144 3 155 5 210 32 104 51 152 152 127
271 -10 50 -20 66 -64 109 -30 30 -68 57 -91 64 -22 7 -106 16 -187 19 l-148
6 0 -252z m298 135 c55 -29 76 -62 80 -129 6 -114 -47 -160 -183 -161 l-80 -1
-3 153 -3 152 81 0 c50 0 91 -5 108 -14z"/>
<path d="M3194 1473 c4 -10 47 -84 97 -165 l89 -147 0 -86 0 -85 55 0 55 0 0
89 0 90 84 140 c122 202 116 181 52 181 l-54 0 -62 -105 c-34 -58 -66 -107
-70 -110 -4 -3 -36 44 -72 103 l-64 107 -58 3 c-53 3 -58 1 -52 -15z"/>
<path d="M2740 950 c0 -5 7 -10 15 -10 19 0 19 -23 0 -175 -8 -66 -15 -121
-15 -122 0 -2 7 -3 15 -3 10 0 16 16 21 50 9 66 30 66 67 0 18 -32 35 -50 47
-50 26 0 36 20 13 26 -10 3 -27 22 -39 43 l-21 38 29 32 c30 34 37 71 13 71
-8 0 -15 -7 -15 -16 0 -26 -40 -74 -62 -74 -20 0 -20 4 -14 78 4 42 10 87 13
100 5 20 1 22 -31 22 -20 0 -36 -4 -36 -10z"/>
<path d="M2110 930 c0 -5 7 -10 16 -10 15 0 16 -10 10 -87 -11 -142 -16 -163
-37 -163 -11 0 -19 -7 -19 -15 0 -12 13 -15 60 -15 47 0 60 3 60 15 0 10 -10
15 -26 15 -24 0 -26 3 -20 31 3 17 6 35 6 39 0 4 25 11 55 15 71 8 104 36 112
92 5 35 2 45 -20 67 -24 24 -33 26 -112 26 -50 0 -85 -4 -85 -10z m150 -20
c73 -39 22 -138 -66 -128 -28 3 -29 5 -26 53 5 76 9 85 43 85 17 0 39 -5 49
-10z"/>
<path d="M2397 839 c-43 -25 -62 -134 -31 -177 20 -29 76 -30 104 -2 l20 20 0
-21 c0 -16 5 -20 27 -17 28 3 45 28 19 28 -19 0 -19 9 -5 101 11 74 6 96 -16
66 -11 -15 -14 -15 -25 -2 -14 17 -66 19 -93 4z m82 -25 c20 -14 23 -23 18
-61 -5 -51 -40 -95 -71 -91 -49 7 -59 105 -15 149 23 23 38 24 68 3z"/>
<path d="M2590 835 c0 -8 7 -15 16 -15 12 0 14 -8 9 -47 -11 -84 -16 -101 -31
-107 -31 -12 -11 -26 36 -26 38 0 50 4 50 15 0 8 -9 15 -20 15 -16 0 -19 5
-16 23 3 12 7 37 10 56 7 41 32 71 58 71 10 0 18 7 18 15 0 20 -29 19 -52 -2
-17 -15 -18 -15 -18 0 0 12 -9 17 -30 17 -20 0 -30 -5 -30 -15z"/>
</g>
</svg>
